<svg id="Capa_1" enable-background="new 0 0 512 512" height="512" viewBox="0 0 512 512" width="512" xmlns="http://www.w3.org/2000/svg"><g><path d="m512 256c0 141.38-114.62 256-256 256-25.95 0-50.99-3.86-74.59-11.04 0-21.62-17.52-39.14-39.14-39.14h-38.52c-62.95-46.64-103.75-121.47-103.75-205.82 0-46.22 12.25-89.57 33.68-127 44.12-77.07 127.16-129 222.32-129s178.2 51.93 222.32 129c21.43 37.43 33.68 80.78 33.68 127z" fill="#22d7ff"/><path d="m512 256c0 141.38-114.62 256-256 256-25.95 0-50.99-3.86-74.59-11.04 0-21.62-17.52-39.14-39.14-39.14h-38.52c-62.94-46.63-103.75-121.47-103.75-205.82 0-46.22 12.25-89.57 33.68-127 44.12 77.07 127.16 129 222.32 129s178.2-51.93 222.32-129c21.43 37.43 33.68 80.78 33.68 127z" fill="#00b3ff"/><g><g><path d="m192.55 302.708c-24.936 24.936-62.94 28.85-91.975 11.73-5.398-3.185-10.489-7.095-15.124-11.73-4.638-4.638-8.548-9.729-11.733-15.128-17.116-29.039-13.202-67.035 11.733-91.971 24.936-24.936 62.932-28.85 91.971-11.734 5.398 3.185 10.489 7.095 15.128 11.734 4.634 4.634 8.544 9.725 11.73 15.124 17.12 29.035 13.206 67.039-11.73 91.975z" fill="#ffdc00"/><path d="m192.55 302.708c-24.936 24.936-62.94 28.85-91.975 11.73-5.398-3.185-10.489-7.095-15.124-11.73l107.099-107.099c4.634 4.634 8.544 9.725 11.73 15.124 17.12 29.035 13.206 67.039-11.73 91.975z" fill="#ffbc00"/><path d="m204.28 210.733-103.704 103.704c-5.398-3.185-10.489-7.095-15.124-11.73-4.638-4.638-8.548-9.729-11.733-15.128l103.704-103.704c5.398 3.185 10.489 7.095 15.128 11.734 4.634 4.635 8.544 9.726 11.729 15.124z" fill="#ffbc00"/><path d="m204.28 210.733-103.704 103.704c-5.398-3.185-10.489-7.095-15.124-11.73l107.098-107.098c4.635 4.635 8.545 9.726 11.73 15.124z" fill="#ff9f00"/></g><g><path d="m447.002 256.055c22.812 19.073 28.949 50.698 16.747 76.367-2.271 4.773-5.173 9.342-8.717 13.581-3.548 4.243-7.53 7.909-11.825 10.989-23.105 16.552-55.31 16.114-78.123-2.959-22.812-19.073-28.948-50.691-16.75-76.363 2.271-4.773 5.173-9.342 8.72-13.585 3.545-4.24 7.527-7.905 11.822-10.985 23.102-16.556 55.313-16.118 78.126 2.955z" fill="#ffdc00"/><path d="m447.002 256.055c22.812 19.073 28.949 50.698 16.747 76.367-2.271 4.773-5.173 9.342-8.717 13.581l-97.978-81.918c3.545-4.24 7.527-7.905 11.822-10.985 23.102-16.556 55.313-16.118 78.126 2.955z" fill="#ffbc00"/><path d="m368.876 253.1 94.873 79.322c-2.271 4.773-5.173 9.342-8.717 13.581-3.548 4.243-7.53 7.909-11.825 10.989l-94.873-79.322c2.271-4.773 5.173-9.342 8.72-13.585 3.545-4.24 7.527-7.905 11.822-10.985z" fill="#ffbc00"/><path d="m368.876 253.1 94.873 79.322c-2.271 4.773-5.173 9.342-8.717 13.581l-97.978-81.918c3.545-4.24 7.527-7.905 11.822-10.985z" fill="#ff9f00"/></g><g><g><path d="m290.74 438.79-109.33 62.17c-28.27-8.6-54.47-21.96-77.66-39.14 3.37-6.63 8.64-12.38 15.58-16.34l132.26-75.21c18.92-10.81 43.03-4.23 53.84 14.69s4.23 43.02-14.69 53.83z" fill="#fff"/><path d="m290.74 438.79-109.33 62.17c-16.09-4.89-31.5-11.32-46.07-19.13-6.2-3.32-12.24-6.88-18.12-10.68 3.47-3.01 7.49-5.88 11.96-8.43l132.27-75.2c18.92-10.81 38.61-11.96 43.98-2.56 10.81 18.92 4.23 43.02-14.69 53.83z" fill="#d1f6ff"/><path d="m290.74 438.79-109.33 62.17c-16.09-4.89-31.5-11.32-46.07-19.13l170.09-96.87c10.81 18.92 4.23 43.02-14.69 53.83z" fill="#b3f4ff"/><path d="m290.742 438.789-68.749 39.085-39.148-68.518 68.749-39.085c18.777-10.728 42.646-4.338 53.57 14.249.09.146.178.287.263.436 5.407 9.463 6.468 20.216 3.81 29.959-2.661 9.738-9.038 18.471-18.495 23.874z" fill="#fe3345"/><path d="m290.742 438.789-68.749 39.085-29.296-51.274 68.749-39.085c18.622-10.64 37.998-11.919 43.718-2.995.09.146.178.287.263.436 5.407 9.463 6.468 20.216 3.81 29.959-2.661 9.738-9.038 18.471-18.495 23.874z" fill="#de1263"/></g><path d="m290.742 438.789-68.749 39.085-19.705-34.488 103.003-58.656c.048.072.094.151.136.226 5.407 9.463 6.468 20.216 3.81 29.959-2.661 9.738-9.038 18.471-18.495 23.874z" fill="#bc0e5c"/></g><g><g><path d="m276.234 218.947-96.88-117.324c-6.953-8.385-9.85-18.802-8.916-28.854.939-10.055 5.714-19.748 14.103-26.705 16.774-13.909 41.649-11.587 55.558 5.187l96.88 117.325c13.909 16.774 11.587 41.649-5.187 55.559-16.774 13.909-41.649 11.587-55.558-5.188z" fill="#fff"/><path d="m276.234 218.947-96.88-117.324c-6.953-8.385-9.85-18.802-8.916-28.854.939-10.055 5.714-19.748 14.103-26.705 8.333-6.91 26.361 1.09 40.271 17.864l96.88 117.325c13.909 16.774 18.434 35.972 10.101 42.882-16.775 13.909-41.65 11.587-55.559-5.188z" fill="#d1f6ff"/><path d="m276.234 218.947-96.88-117.324c-6.953-8.385-9.85-18.802-8.916-28.854.939-10.055 5.714-19.748 14.103-26.705l147.251 178.07c-16.774 13.91-41.649 11.588-55.558-5.187z" fill="#b3f4ff"/><path d="m276.234 218.947-50.348-60.984 60.745-50.371 50.348 60.984c13.804 16.647 11.623 41.261-4.803 55.224-.128.114-.252.225-.384.334-8.389 6.957-18.799 9.855-28.854 8.916-10.05-.942-19.752-5.718-26.704-14.103z" fill="#fe3345"/><path d="m276.234 218.947-50.348-60.984 45.458-37.694 50.349 60.984c13.69 16.51 18.289 35.375 10.485 42.547-.128.114-.252.225-.384.334-8.389 6.957-18.799 9.855-28.854 8.916-10.052-.942-19.754-5.718-26.706-14.103z" fill="#de1263"/></g><path d="m276.234 218.947-50.348-60.984 30.576-25.354 75.53 91.352c-.062.059-.133.118-.199.173-8.389 6.957-18.799 9.855-28.854 8.916-10.051-.942-19.753-5.718-26.705-14.103z" fill="#bc0e5c"/></g></g><path d="m512 256c0 141.38-114.62 256-256 256-25.95 0-50.99-3.86-74.59-11.04-28.27-8.6-54.47-21.96-77.66-39.14-62.95-46.64-103.75-121.47-103.75-205.82 0-46.22 12.25-89.57 33.68-127 44.12-77.07 127.16-129 222.32-129s178.2 51.93 222.32 129c21.43 37.43 33.68 80.78 33.68 127z" fill="none"/></g></svg>