<svg id="Capa_1" enable-background="new 0 0 512 512" height="512" viewBox="0 0 512 512" width="512" xmlns="http://www.w3.org/2000/svg"><g><path d="m512 256c0 16.84-1.63 33.29-4.73 49.22-8.93 45.89-30.14 87.4-60.05 120.98h-7.96c-25.29 0-45.8 20.51-45.8 45.8-39.71 25.32-86.87 40-137.46 40s-97.75-14.68-137.46-40c0-25.29-20.51-45.8-45.8-45.8h-7.96c-29.91-33.58-51.12-75.09-60.05-120.98-3.1-15.93-4.73-32.38-4.73-49.22 0-46.22 12.25-89.57 33.68-127 44.12-77.07 127.16-129 222.32-129s178.2 51.93 222.32 129c21.43 37.43 33.68 80.78 33.68 127z" fill="#81f700"/><path d="m512 256c0 65.34-24.49 124.97-64.77 170.2h-7.97c-25.29 0-45.79 20.5-45.8 45.79v.01h-.01c-39.71 25.33-86.86 40-137.45 40s-97.75-14.68-137.46-40c0-25.29-20.51-45.8-45.8-45.8h-7.97c-40.28-45.23-64.77-104.86-64.77-170.2 0-46.22 12.25-89.57 33.68-127 8.86 15.49 19.3 29.96 31.09 43.19 13.71 15.39 29.24 29.12 46.27 40.83 14.42 9.93 29.92 18.42 46.28 25.26 30.37 12.71 63.71 19.72 98.68 19.72s68.3-7.01 98.67-19.71c16.35-6.84 31.85-15.33 46.28-25.27 17.03-11.71 32.57-25.43 46.28-40.83 11.79-13.23 22.23-27.7 31.09-43.19 21.43 37.43 33.68 80.78 33.68 127z" fill="#00cc7f"/><g><g><g><path d="m157.32 151v275.33c0 23.01-16.79 42.08-38.78 45.67-19.98-12.74-38.07-28.18-53.77-45.8v-275.2z" fill="#fff"/><path d="m157.32 151v275.33c0 23.01-16.79 42.08-38.78 45.67h-.01c-2.53-1.62-5.03-3.27-7.49-4.97v-316.03z" fill="#cff6ff"/><path d="m64.767 150.998h92.554v47.809h-92.554z" fill="#b0edf7"/><path d="m111.044 150.998h46.277v47.809h-46.277z" fill="#91dde5"/><path d="m169.298 150.998c0 5.075-2.055 9.671-5.383 12.994-3.327 3.327-7.923 5.383-12.994 5.383h-79.755c-10.147 0-18.372-8.225-18.372-18.377 0-5.071 2.055-9.667 5.383-12.99 3.323-3.327 7.918-5.382 12.99-5.382h79.755c10.146 0 18.376 8.225 18.376 18.372z" fill="#fff"/><path d="m169.298 150.998c0 5.075-2.055 9.671-5.383 12.994-3.327 3.327-7.923 5.383-12.994 5.383h-50.63c-10.147 0-18.372-8.225-18.372-18.377 0-5.071 2.055-9.667 5.383-12.99 3.323-3.327 7.918-5.382 12.99-5.382h50.63c10.146 0 18.376 8.225 18.376 18.372z" fill="#cff6ff"/><path d="m169.298 150.998c0 5.075-2.055 9.671-5.383 12.994-3.327 3.327-7.923 5.383-12.994 5.383h-39.878v-36.749h39.878c10.147 0 18.377 8.225 18.377 18.372z" fill="#b0edf7"/><path d="m138.282 332.034v94.294c0 15.019-12.219 27.238-27.238 27.238s-27.238-12.22-27.238-27.238v-94.294z" fill="#fe3244"/><path d="m138.282 332.034v94.294c0 15.019-12.219 27.238-27.238 27.238v-121.532z" fill="#de1263"/></g><g><path d="m302.275 150.998v275.329c0 25.56-20.718 46.277-46.277 46.277s-46.277-20.718-46.277-46.277v-275.329z" fill="#fff"/><path d="m302.275 150.998v275.329c0 25.56-20.718 46.277-46.277 46.277v-321.606z" fill="#cff6ff"/><path d="m209.721 150.998h92.554v47.809h-92.554z" fill="#b0edf7"/><path d="m255.998 150.998h46.277v47.809h-46.277z" fill="#91dde5"/><path d="m314.252 150.998c0 5.075-2.055 9.671-5.383 12.994-3.327 3.327-7.923 5.383-12.994 5.383h-79.755c-10.147 0-18.372-8.225-18.372-18.377 0-5.071 2.055-9.667 5.383-12.99 3.323-3.327 7.918-5.382 12.99-5.382h79.755c10.146 0 18.376 8.225 18.376 18.372z" fill="#fff"/><path d="m314.252 150.998c0 5.075-2.055 9.671-5.383 12.994-3.327 3.327-7.923 5.383-12.994 5.383h-50.63c-10.147 0-18.372-8.225-18.372-18.377 0-5.071 2.055-9.667 5.383-12.99 3.323-3.327 7.918-5.382 12.99-5.382h50.63c10.146 0 18.376 8.225 18.376 18.372z" fill="#cff6ff"/><path d="m314.252 150.998c0 5.075-2.055 9.671-5.383 12.994-3.327 3.327-7.923 5.383-12.994 5.383h-39.878v-36.749h39.878c10.147 0 18.377 8.225 18.377 18.372z" fill="#b0edf7"/><path d="m283.236 332.034v94.294c0 15.019-12.219 27.238-27.238 27.238s-27.238-12.22-27.238-27.238v-94.294z" fill="#fe3244"/><path d="m283.236 332.034v94.294c0 15.019-12.219 27.238-27.238 27.238v-121.532z" fill="#de1263"/></g><g><path d="m447.23 151v275.2c-13.71 15.39-29.25 29.12-46.28 40.83-2.47 1.7-4.97 3.36-7.5 4.97-21.99-3.59-38.78-22.66-38.78-45.67v-275.33z" fill="#fff"/><path d="m447.23 151v275.2c-13.71 15.39-29.25 29.12-46.28 40.83v-316.03z" fill="#cff6ff"/><path d="m354.675 150.998h92.554v47.809h-92.554z" fill="#b0edf7"/><path d="m400.952 150.998h46.277v47.809h-46.277z" fill="#91dde5"/><path d="m459.206 150.998c0 5.075-2.055 9.671-5.383 12.994-3.328 3.327-7.923 5.383-12.994 5.383h-79.755c-10.147 0-18.372-8.225-18.372-18.377 0-5.071 2.055-9.667 5.383-12.99 3.323-3.327 7.918-5.382 12.99-5.382h79.755c10.146 0 18.376 8.225 18.376 18.372z" fill="#fff"/><path d="m459.206 150.998c0 5.075-2.055 9.671-5.383 12.994-3.328 3.327-7.923 5.383-12.994 5.383h-50.63c-10.147 0-18.372-8.225-18.372-18.377 0-5.071 2.055-9.667 5.383-12.99 3.323-3.327 7.918-5.382 12.99-5.382h50.63c10.146 0 18.376 8.225 18.376 18.372z" fill="#cff6ff"/><path d="m459.206 150.998c0 5.075-2.055 9.671-5.383 12.994-3.328 3.327-7.923 5.383-12.994 5.383h-39.878v-36.749h39.878c10.147 0 18.377 8.225 18.377 18.372z" fill="#b0edf7"/><path d="m428.19 332.034v94.294c0 15.019-12.219 27.238-27.238 27.238s-27.238-12.22-27.238-27.238v-94.294z" fill="#fe3244"/><path d="m428.19 332.034v94.294c0 15.019-12.219 27.238-27.238 27.238v-121.532z" fill="#de1263"/></g></g><path d="m512 256c0 16.84-1.63 33.29-4.73 49.22h-502.54c-3.1-15.93-4.73-32.38-4.73-49.22z" fill="#464f6e"/><path d="m512 256c0 16.84-1.63 33.29-4.73 49.22h-251.27v-49.22z" fill="#303c5a"/></g><path d="m512 256c0 141.38-114.62 256-256 256s-256-114.62-256-256c0-46.22 12.25-89.57 33.68-127 44.12-77.07 127.16-129 222.32-129s178.2 51.93 222.32 129c21.43 37.43 33.68 80.78 33.68 127z" fill="none"/></g></svg>