<svg height="512" viewBox="0 0 64 64" width="512" xmlns="http://www.w3.org/2000/svg"><g id="Antihistamines"><path d="m57.46 22.95-2 3.46-2 3.47-2 3.46-1.73-1-3.46-2-1.73-1 8-13.86 3.46 2 3.46 2z" fill="#ffde55"/><path d="m49.73 32.34-2 3.46-1.73-1-1.73-1 2-3.46z" fill="#57a4ff"/><path d="m47 53v2a6 6 0 0 1 -6 6h-5.08l-1.29-1.85-7.72-11.02-3.89-5.56a4 4 0 1 1 6.55-4.59l5.59 7.99 4.92 7.03z" fill="#ffdaaa"/><path d="m47 53v2a6 6 0 0 1 -6 6h-4a6 6 0 0 0 6-6v-2z" fill="#ffc477"/><path d="m47 45v8h-6.92l-4.92-7.03-.76-3.67z" fill="#57a4ff"/><path d="m47 45v8h-4v-8l-8.41-1.8-.19-.9z" fill="#006df0"/><path d="m39 22v2a2.006 2.006 0 0 1 -2 2h-2v-6h2a2.006 2.006 0 0 1 2 2z" fill="#ffb655"/><path d="m39 3v6a7.969 7.969 0 0 1 -4 6.92v-.92l-7-4-15 4v2a4 4 0 0 1 -4-4v-2a8 8 0 0 1 8-8z" fill="#57565c"/><path d="m35.16 45.97-5.59-7.99a4 4 0 0 0 -6.55 4.59l3.89 5.56c-.72.95-1.46 1.87-2.9 1.87-3 0-3-4-6.01-4s-3 4-6 4l1.6-7.7 1.93-9.27.04-.18a8.613 8.613 0 0 1 16.86 0l.04.18 1.93 9.27z" fill="#009698"/><path d="m35.16 45.97-5.59-7.99-.09-.12-1.01-4.83-.04-.18a8.53 8.53 0 0 0 -3-4.92 8.623 8.623 0 0 0 -3.43-1.69 8.236 8.236 0 0 1 2-.24 8.619 8.619 0 0 1 8.43 6.85l.04.18 1.93 9.27z" fill="#007579"/><path d="m35 20v6a10.993 10.993 0 0 1 -2.53 7.03l-.04-.18a8.612 8.612 0 0 0 -16.86 0l-.04.18a10.993 10.993 0 0 1 -2.53-7.03v-11l15-4 7 4z" fill="#ffdaaa"/><path d="m39 3v6a7.969 7.969 0 0 1 -4 6.92v-.92l-1.75-1a8.014 8.014 0 0 0 1.75-5v-6z" fill="#3e3d42"/><path d="m35 15v11a10.993 10.993 0 0 1 -2.53 7.03l-.04-.18a8.478 8.478 0 0 0 -1.86-3.8 10.964 10.964 0 0 0 .43-3.05v-11l-5.73-3.27 2.73-.73z" fill="#ffc477"/><path d="m34.63 59.15-10.63 1.85-21-3v-13l10.6-2.7-1.6 7.7c3 0 3-4 6-4s3.01 4 6.01 4c1.44 0 2.18-.92 2.9-1.87z" fill="#57a4ff"/><path d="m13 20v6h-2a2.006 2.006 0 0 1 -2-2v-2a2.006 2.006 0 0 1 2-2z" fill="#ffb655"/><path d="m47.21 44.02-11.97-2.56-1.7-8.19a12.073 12.073 0 0 0 2.42-6.27h1.04a3.009 3.009 0 0 0 3-3v-2a3.009 3.009 0 0 0 -3-3h-1v-2.55a8.982 8.982 0 0 0 4-7.45v-6a1 1 0 0 0 -1-1h-22a9.014 9.014 0 0 0 -9 9v2a5.017 5.017 0 0 0 4 4.9v1.1h-1a3.009 3.009 0 0 0 -3 3v2a3.009 3.009 0 0 0 3 3h1.04a12.073 12.073 0 0 0 2.42 6.27l-1.71 8.21-10 2.55a1 1 0 0 0 -.75.97v13a1 1 0 0 0 .86.99l21 3a.66.66 0 0 0 .14.01.97.97 0 0 0 .17-.01l10-1.74.93 1.32a1 1 0 0 0 .82.43h5.08a7.008 7.008 0 0 0 7-7v-10a1 1 0 0 0 -.79-.98zm-35.21-19.02h-1a1 1 0 0 1 -1-1v-2a1 1 0 0 1 1-1h1zm25-4a1 1 0 0 1 1 1v2a1 1 0 0 1 -1 1h-1v-4zm-25-6v.82a3.01 3.01 0 0 1 -2-2.82v-2a7.008 7.008 0 0 1 7-7h21v5a6.978 6.978 0 0 1 -2.38 5.23c-.04-.03-.08-.07-.12-.1l-7-4a1.055 1.055 0 0 0 -.76-.1l-15 4a1 1 0 0 0 -.74.97zm2 11v-10.23l13.86-3.7 6.14 3.51v10.42a10.028 10.028 0 0 1 -1.2 4.75 9.6 9.6 0 0 0 -8.8-5.75 9.653 9.653 0 0 0 -8.79 5.75 9.922 9.922 0 0 1 -1.21-4.75zm2.55 7.05a7.606 7.606 0 0 1 12.25-4.34 7.5 7.5 0 0 1 2.65 4.34l1.74 8.36-2.8-4a5 5 0 0 0 -6.96-1.23 4.991 4.991 0 0 0 -1.23 6.96l3.46 4.95a2.017 2.017 0 0 1 -1.65.91c-.95 0-1.43-.58-2.2-1.6-.8-1.07-1.8-2.4-3.81-2.4s-3 1.33-3.8 2.4a8.152 8.152 0 0 1 -.85 1.02zm7.43 26.94-19.98-2.86v-11.35l8.3-2.12-1.28 6.14a.993.993 0 0 0 .2.83 1.022 1.022 0 0 0 .78.37c2 0 3-1.33 3.8-2.4.77-1.02 1.25-1.6 2.2-1.6s1.44.58 2.21 1.6c.8 1.07 1.8 2.4 3.8 2.4a3.829 3.829 0 0 0 2.83-1.23l6.06 8.67zm22.02-4.99a5 5 0 0 1 -5 5h-4.56l-12.6-18a3 3 0 1 1 4.91-3.44l10.51 15.01a1.01 1.01 0 0 0 .82.43h5.92zm0-3h-5.4l-4.5-6.44-.41-1.96 10.31 2.21z"/><path d="m27.445 20.832 3 2 1.11-1.664-1.755-1.168 1.752-1.168-1.11-1.664-3 2a1 1 0 0 0 0 1.664z"/><path d="m17.555 22.832 3-2a1 1 0 0 0 0-1.664l-3-2-1.11 1.664 1.755 1.168-1.752 1.168z"/><path d="m23 16h2v4h-2z"/><path d="m59.96 18.62-2.59-1.5 1-1.73 1.73 1 1-1.74-5.2-3-1 1.74 1.73 1-1 1.73-2.59-1.5a.969.969 0 0 0 -.76-.1.983.983 0 0 0 -.61.46l-8 13.86a1 1 0 0 0 .37 1.37l.86.5-1.5 2.59a1.01 1.01 0 0 0 .37 1.37l.86.5-2.5 4.33 1.74 1 2.5-4.33.86.5a1.013 1.013 0 0 0 1.37-.37l1.5-2.59.86.5a1.128 1.128 0 0 0 .5.13 1.09 1.09 0 0 0 .26-.03 1 1 0 0 0 .61-.47l8-13.86a.988.988 0 0 0 -.37-1.36zm-12.59 15.82-1.74-1 1-1.73 1.74 1zm9.73-12.86-2.6-1.5-1 1.73 2.6 1.5-1 1.74-2.6-1.5-1 1.73 2.6 1.5-1 1.73-2.6-1.5-1 1.73 2.6 1.5-1 1.73-5.2-3 7-12.12 5.2 3z"/><path d="m49.707 38.293-1.414 1.414 4 4a1 1 0 0 0 .707.293h9v-2h-8.586z"/><path d="m52 46h2v2h-2z"/><path d="m56 46h6v2h-6z"/><path d="m52 50h10v2h-10z"/><path d="m56 38h6v2h-6z"/></g></svg>