<svg id="Capa_1" enable-background="new 0 0 512 512" height="512" viewBox="0 0 512 512" width="512" xmlns="http://www.w3.org/2000/svg"><g><path d="m512 256c0 74.53-31.85 141.62-82.68 188.4v-.01c-111.46 43.48-235.18 43.48-346.64 0 0 0 0 0-.01.01-50.82-46.79-82.67-113.88-82.67-188.4 0-46.22 12.25-89.57 33.68-127 44.12-77.07 127.16-129 222.32-129s178.2 51.93 222.32 129c21.43 37.43 33.68 80.78 33.68 127z" fill="#81f700"/><path d="m512 256c0 46.01-12.14 89.18-33.39 126.49-13.17 23.13-29.84 44-49.29 61.9-111.46 43.48-235.18 43.48-346.64 0-13.42-12.34-25.52-26.11-36.06-41.06-29.37-41.66-46.62-92.48-46.62-147.33 0-46.22 12.25-89.57 33.68-127 13.13 22.93 29.69 43.63 49 61.4 45.6 41.97 106.47 67.6 173.32 67.6s127.72-25.63 173.32-67.6c19.31-17.77 35.87-38.47 49-61.4 21.43 37.43 33.68 80.78 33.68 127z" fill="#00cc7f"/><g><path d="m429.32 157.4v286.99c-45.59 41.98-106.47 67.61-173.32 67.61s-127.72-25.63-173.32-67.61v-335.53c0-4.63 3.75-8.38 8.38-8.38h281.35c22.23 22.23 34.69 34.69 56.91 56.92z" fill="#fff"/><path d="m429.32 157.4v286.99c-45.59 41.98-106.47 67.61-173.32 67.61v-411.52h116.41c22.23 22.23 34.69 34.69 56.91 56.92z" fill="#cff6ff"/><g fill="#464f6e"><path d="m123.035 161.479h132.965v39.657h-132.965z"/><path d="m123.04 236.61h265.93v39.66h-265.93z"/><path d="m123.04 311.75h265.93v39.65h-265.93z"/><path d="m123.04 386.88h265.93v39.66h-265.93z"/><path d="m388.97 462.01v12.78c-18.79 11.45-39.18 20.55-60.74 26.88h-144.46c-21.56-6.33-41.94-15.43-60.73-26.88v-12.78z"/></g><g><path d="m370.047 170.229v22.164h-22.164v22.157h-22.157v-22.157h-22.164v-22.164h22.164v-22.164h22.157v22.164z" fill="#de1263"/></g><path d="m370.047 170.229v22.164h-22.164v22.157h-11.075v-66.485h11.075v22.164z" fill="#a30856"/><path d="m429.325 157.396h-56.911v-56.912c22.224 22.225 34.687 34.687 56.911 56.912z" fill="#26d9f8"/><path d="m256 236.61h132.97v39.66h-132.97z" fill="#303c5a"/><path d="m256 311.75h132.97v39.65h-132.97z" fill="#303c5a"/><path d="m256 386.88h132.97v39.66h-132.97z" fill="#303c5a"/><path d="m388.97 462.01v12.78c-18.79 11.45-39.18 20.55-60.74 26.88h-72.23v-39.66z" fill="#303c5a"/></g><path d="m512 256c0 141.38-114.62 256-256 256s-256-114.62-256-256c0-46.22 12.25-89.57 33.68-127 44.12-77.07 127.16-129 222.32-129s178.2 51.93 222.32 129c21.43 37.43 33.68 80.78 33.68 127z" fill="none"/></g></svg>