<svg id="Capa_1" enable-background="new 0 0 512 512" height="512" viewBox="0 0 512 512" width="512" xmlns="http://www.w3.org/2000/svg"><g><g><path d="m512 256c0 141.38-114.62 256-256 256-42.8 0-83.15-10.51-118.61-29.09l-16.37-28.62c-15.09-26.37-36.94-48.22-63.31-63.31l-28.62-16.37c-18.58-35.46-29.09-75.81-29.09-118.61 0-46.22 12.25-89.57 33.68-127 44.12-77.07 127.16-129 222.32-129s178.2 51.93 222.32 129c21.43 37.43 33.68 80.78 33.68 127z" fill="#464f6e"/><path d="m512 256c0 141.38-114.62 256-256 256-42.8 0-83.15-10.51-118.61-29.09l-16.37-28.62c-15.09-26.37-36.94-48.22-63.31-63.31l-28.62-16.37c-18.58-35.46-29.09-75.81-29.09-118.61 0-46.22 12.25-89.57 33.68-127 44.12 77.07 127.16 129 222.32 129s178.2-51.93 222.32-129c21.43 37.43 33.68 80.78 33.68 127z" fill="#303c5a"/></g><g><g><path d="m141.1 457.14c3.17 3.17 4.76 7.33 4.76 11.49 0 4.17-1.59 8.33-4.76 11.51-1.13 1.13-2.38 2.05-3.71 2.77-23.11-12.09-44.13-27.62-62.41-45.89-18.27-18.28-33.8-39.3-45.89-62.41.72-1.33 1.65-2.58 2.77-3.71 6.36-6.35 16.65-6.35 23 0l12.9 12.9c4.77 4.77 12.5 4.77 17.28 0l83.35-83.36 44.75 44.75-83.36 83.36c-4.77 4.77-4.76 12.51 0 17.27z" fill="#fff"/><path d="m145.86 468.63c0 4.17-1.59 8.33-4.76 11.51-1.13 1.13-2.38 2.05-3.71 2.77-23.11-12.09-44.13-27.62-62.41-45.89-8.54-8.54-16.47-17.67-23.72-27.34.08-.81.27-1.67.56-2.55 1-3.17 3.21-6.71 6.39-9.89 6.35-6.35 14.16-8.83 17.45-5.54l65.44 65.44c3.17 3.17 4.76 7.33 4.76 11.49z" fill="#d1f6ff"/><path d="m141.1 457.14c3.17 3.17 4.76 7.33 4.76 11.49 0 4.17-1.59 8.33-4.76 11.51-1.13 1.13-2.38 2.05-3.71 2.77-23.11-12.09-44.13-27.62-62.41-45.89l115-115 23.16 23.17-83.36 83.36c-4.77 4.77-4.76 12.51 0 17.27z" fill="#b3f4ff"/><path d="m129.784 445.824-62.027-62.027c4.772 4.772 12.506 4.772 17.278 0l83.359-83.359 44.748 44.748-83.359 83.359c-4.771 4.773-4.764 12.514.001 17.279z" fill="#b3f4ff"/><path d="m129.784 445.824-31.804-31.804 91.998-91.998 23.165 23.165-83.359 83.359c-4.772 4.772-4.765 12.513 0 17.278z" fill="#9de6ed"/><g><path d="m410.416 117.396-68.273 68.274c-4.356 4.356-11.5 4.678-15.931.399-4.511-4.358-4.558-11.535-.141-15.951l68.25-68.25c4.369-4.369 11.547-4.705 15.978-.399 4.486 4.359 4.525 11.519.117 15.927z" fill="#fff"/><path d="m410.416 117.396-68.533 68.533c-4.37 4.37-11.442 4.37-15.812 0l84.319-84.319c.014-.014.038-.014.052 0 4.344 4.372 4.335 11.425-.026 15.786z" fill="#d1f6ff"/><path d="m368.605 248.905-156.274 156.275-105.51-105.51 156.274-156.274c7.949-7.949 20.455-9.056 29.691-2.638l12.916 8.991c1.891 1.315 4.118 1.862 6.282 1.667 2.156-.187 4.255-1.121 5.879-2.745 6.591-6.591 17.271-6.591 23.862 0l21.605 21.605c6.591 6.591 6.591 17.271 0 23.862-3.256 3.256-3.709 8.381-1.078 12.161l8.991 12.916c6.418 9.235 5.311 21.741-2.638 29.69z" fill="#fff"/><g><path d="m368.605 248.905-156.274 156.275-84.308-84.308 156.274-156.274c7.949-7.949 18.163-11.349 24.257-8.071l8.51 4.585c1.244.668 2.918.661 4.686.072 1.761-.582 3.622-1.754 5.247-3.378 6.591-6.591 15.129-8.733 19.068-4.794l17.264 17.264c6.591 6.591 6.591 17.271 0 23.862-3.256 3.256-3.709 8.381-1.078 12.161l8.991 12.916c6.419 9.235 5.312 21.741-2.637 29.69z" fill="#d1f6ff"/></g><path d="m221.372 437.221c-3.177 3.177-7.338 4.765-11.493 4.765-4.169 0-8.33-1.588-11.507-4.765l-123.593-123.594c-6.354-6.354-6.346-16.653 0-23 3.177-3.177 7.338-4.765 11.5-4.772 4.161.007 8.323 1.596 11.5 4.772l123.594 123.594c6.353 6.354 6.353 16.646-.001 23z" fill="#fff"/><path d="m221.372 437.221c-3.177 3.177-7.338 4.765-11.493 4.765-4.169 0-8.33-1.588-11.507-4.765l-91.789-91.79c-6.354-6.354-6.346-16.653 0-22.999 3.177-3.177 7.338-4.765 11.5-4.772 4.161.007 8.323 1.596 11.5 4.772l91.79 91.789c6.353 6.354 6.353 16.646-.001 23z" fill="#d1f6ff"/><path d="m368.605 248.905-156.274 156.275-52.755-52.755 192.951-192.951 10.803 10.803c6.591 6.591 6.591 17.271 0 23.862-3.256 3.256-3.709 8.381-1.078 12.161l8.991 12.916c6.418 9.234 5.311 21.74-2.638 29.689z" fill="#b3f4ff"/><path d="m221.372 437.221c-3.177 3.177-7.338 4.765-11.493 4.765-4.169 0-8.33-1.588-11.507-4.765l-61.797-61.797 23-22.999 61.797 61.797c6.354 6.353 6.354 16.645 0 22.999z" fill="#b3f4ff"/><path d="m161.491 240.037h131.701v89.244h-131.701z" fill="#ffdc00" transform="matrix(.707 -.707 .707 .707 -134.697 244.129)"/><path d="m177.267 278.124h131.701v44.622h-131.701z" fill="#ffbc00" transform="matrix(.707 -.707 .707 .707 -141.232 259.906)"/><path d="m171.134 263.316h65.855v89.244h-65.855z" fill="#ffbc00" transform="matrix(.707 -.707 .707 .707 -157.977 234.486)"/><path d="m186.91 301.404h65.855v44.622h-65.855z" fill="#ff9100" transform="matrix(.707 -.707 .707 .707 -164.512 250.263)"/><path d="m362.252 206.299-56.55-56.55c1.891 1.315 4.118 1.862 6.282 1.667 2.156-.187 4.255-1.121 5.879-2.745 6.591-6.591 17.271-6.591 23.862 0l21.605 21.605c6.591 6.591 6.591 17.271 0 23.862-3.256 3.255-3.709 8.38-1.078 12.161z" fill="#d1f6ff"/><path d="m362.252 206.299-28.275-28.275 18.551-18.55 10.803 10.803c6.591 6.591 6.591 17.271 0 23.862-3.257 3.254-3.71 8.379-1.079 12.16z" fill="#9de6ed"/></g></g><g fill="#464f6e"><path d="m248.091 235.14h19.18v38.36h-19.18z" transform="matrix(.707 -.707 .707 .707 -104.358 256.697)"/><path d="m227.864 255.367h19.18v38.36h-19.18z" transform="matrix(.707 -.707 .707 .707 -124.585 248.318)"/><path d="m207.637 275.593h19.18v38.36h-19.18z" transform="matrix(.707 -.707 .707 .707 -144.812 239.939)"/><path d="m187.417 295.814h19.18v38.36h-19.18z" transform="matrix(.707 -.707 .707 .707 -165.032 231.563)"/></g><path d="m254.872 251.511h19.18v19.18h-19.18z" fill="#303c5a" transform="matrix(.707 -.707 .707 .707 -107.167 263.478)"/><path d="m234.645 271.738h19.18v19.18h-19.18z" fill="#303c5a" transform="matrix(.707 -.707 .707 .707 -127.394 255.098)"/><path d="m214.419 291.965h19.18v19.18h-19.18z" fill="#303c5a" transform="matrix(.707 -.707 .707 .707 -147.621 246.721)"/><path d="m194.198 312.185h19.18v19.18h-19.18z" fill="#303c5a" transform="matrix(.707 -.707 .707 .707 -167.841 238.346)"/></g><path d="m437.019 437.019c-99.971 99.971-262.068 99.971-362.039 0s-99.971-262.068 0-362.039c32.682-32.682 71.998-54.674 113.618-65.987 85.694-23.299 181.132-1.301 248.421 65.987 67.288 67.288 89.286 162.726 65.987 248.421-11.313 41.621-33.304 80.936-65.987 113.618z" fill="none"/><path d="m445.585 205.929c-6.37 5.993-14.576 8.988-22.792 8.988-8.211 0-16.426-2.995-22.797-8.988-12.755-11.992-13.899-31.47-3.433-44.806 4.267-5.44 8.277-11.072 12.225-16.75l10.786-15.516c.782-1.12 2.003-1.683 3.219-1.683 1.221 0 2.436.563 3.214 1.683l10.785 15.516c3.948 5.679 7.958 11.31 12.225 16.75 10.467 13.336 9.323 32.814-3.432 44.806z" fill="#ffbc00"/><path d="m445.585 205.929c-6.37 5.993-14.576 8.988-22.792 8.988v-87.743c1.221 0 2.436.563 3.214 1.683l10.785 15.516c3.948 5.679 7.958 11.31 12.225 16.75 10.467 13.336 9.323 32.814-3.432 44.806z" fill="#ff9100"/></g></svg>